<svg xmlns="http://www.w3.org/2000/svg" xmlns:xlink="http://www.w3.org/1999/xlink" width="1080" zoomAndPan="magnify" viewBox="0 0 810 809.999993" height="1080" preserveAspectRatio="xMidYMid meet" version="1.0"><path fill="#e99f4c" d="M 313.238281 191.9375 C 323.941406 191.9375 332.625 183.25 332.625 172.550781 L 332.625 135.027344 C 332.625 86.488281 372.175781 46.945312 420.875 46.945312 C 469.578125 46.945312 509.125 86.488281 509.125 135.027344 L 509.125 172.550781 C 509.125 183.25 517.8125 191.9375 528.511719 191.9375 C 539.214844 191.9375 547.902344 183.25 547.902344 172.550781 L 547.902344 140.296875 C 547.902344 72.53125 497.027344 12.988281 429.25 8.488281 C 355.582031 3.683594 293.851562 62.296875 293.851562 135.027344 L 293.851562 172.550781 C 293.851562 183.25 302.535156 191.9375 313.238281 191.9375 Z M 313.238281 191.9375 " fill-opacity="1" fill-rule="nonzero"/><path fill="#de5499" d="M 720.988281 695.910156 L 678.335938 281.101562 C 674.925781 248.070312 647.164062 223.105469 613.972656 223.105469 L 227.78125 223.105469 C 194.589844 223.105469 166.828125 248.226562 163.414062 281.101562 L 152.714844 384.375 C 145.578125 453.691406 211.496094 507.8125 278.03125 487.496094 L 314.167969 476.488281 C 355.269531 463.925781 401.179688 484.707031 417.308594 530.296875 C 422.890625 546.113281 422.117188 563.480469 417.152344 579.605469 L 401.179688 631.710938 C 379.15625 703.664062 432.972656 776.390625 508.195312 776.390625 L 648.402344 776.390625 C 691.675781 776.234375 725.488281 738.863281 720.988281 695.910156 Z M 720.988281 695.910156 " fill-opacity="1" fill-rule="nonzero"/><path fill="#e99f4c" d="M 327.816406 520.835938 L 118.902344 584.570312 C 88.503906 593.875 86.332031 636.050781 115.644531 648.457031 L 165.429688 669.390625 C 191.796875 680.558594 212.890625 701.492188 224.058594 728.007812 L 244.996094 777.785156 C 257.402344 807.09375 299.589844 804.921875 308.894531 774.527344 L 372.640625 565.652344 C 381.171875 538.203125 355.425781 512.460938 327.816406 520.835938 Z M 327.816406 520.835938 " fill-opacity="1" fill-rule="nonzero"/></svg>