<svg xmlns="http://www.w3.org/2000/svg" xmlns:xlink="http://www.w3.org/1999/xlink" width="3212" zoomAndPan="magnify" viewBox="0 0 2409.75 623.24998" height="831" preserveAspectRatio="xMidYMid meet" version="1.0"><defs><g/></defs><path fill="#e99f4c" d="M 148.941406 174.425781 C 155.878906 174.425781 161.511719 168.792969 161.511719 161.855469 L 161.511719 137.523438 C 161.511719 106.054688 187.152344 80.417969 218.726562 80.417969 C 250.300781 80.417969 275.945312 106.054688 275.945312 137.523438 L 275.945312 161.855469 C 275.945312 168.792969 281.574219 174.425781 288.515625 174.425781 C 295.453125 174.425781 301.082031 168.792969 301.082031 161.855469 L 301.082031 140.945312 C 301.082031 97.007812 268.101562 58.398438 224.15625 55.484375 C 176.394531 52.367188 136.371094 90.371094 136.371094 137.523438 L 136.371094 161.855469 C 136.371094 168.792969 142.003906 174.425781 148.941406 174.425781 Z M 148.941406 174.425781 " fill-opacity="1" fill-rule="nonzero"/><path fill="#de5499" d="M 413.304688 501.183594 L 385.652344 232.234375 C 383.441406 210.820312 365.441406 194.632812 343.921875 194.632812 L 93.535156 194.632812 C 72.015625 194.632812 54.015625 210.921875 51.804688 232.234375 L 44.863281 299.195312 C 40.238281 344.136719 82.976562 379.226562 126.113281 366.054688 L 149.542969 358.917969 C 176.191406 350.773438 205.957031 364.246094 216.414062 393.804688 C 220.035156 404.058594 219.53125 415.320312 216.3125 425.777344 L 205.957031 459.558594 C 191.675781 506.210938 226.570312 553.363281 275.339844 553.363281 L 366.246094 553.363281 C 394.300781 553.265625 416.222656 529.035156 413.304688 501.183594 Z M 413.304688 501.183594 " fill-opacity="1" fill-rule="nonzero"/><path fill="#e99f4c" d="M 158.394531 387.671875 L 22.941406 428.996094 C 3.234375 435.027344 1.824219 462.375 20.832031 470.417969 L 53.109375 483.992188 C 70.203125 491.230469 83.878906 504.804688 91.121094 521.996094 L 104.695312 554.269531 C 112.742188 573.269531 140.09375 571.863281 146.125 552.15625 L 187.453125 416.730469 C 192.984375 398.933594 176.292969 382.242188 158.394531 387.671875 Z M 158.394531 387.671875 " fill-opacity="1" fill-rule="nonzero"/><g fill="#de5499" fill-opacity="1"><g transform="translate(415.495507, 488.185929)"><g><path d="M 124.941406 4.308594 C 176.210938 4.308594 231.785156 -25.851562 231.785156 -85.304688 C 231.785156 -127.527344 203.78125 -153.375 139.589844 -176.210938 L 118.910156 -183.964844 C 93.488281 -193.441406 81.859375 -204.644531 81.859375 -221.445312 C 81.859375 -242.125 98.660156 -255.914062 124.078125 -255.914062 C 149.929688 -255.914062 165.871094 -242.558594 181.808594 -218.863281 L 223.601562 -243.417969 C 208.523438 -273.144531 176.210938 -305.890625 123.648438 -305.890625 C 69.792969 -305.890625 25.851562 -274.4375 25.851562 -223.167969 C 25.851562 -175.347656 60.316406 -153.375 105.121094 -137.003906 L 124.078125 -129.679688 C 157.683594 -117.1875 173.195312 -108.570312 173.195312 -86.164062 C 173.195312 -59.886719 152.515625 -46.960938 124.941406 -46.960938 C 89.613281 -46.960938 69.363281 -68.5 58.59375 -92.628906 L 15.078125 -69.792969 C 28.433594 -27.140625 71.085938 4.308594 124.941406 4.308594 Z M 124.941406 4.308594 "/></g></g></g><g fill="#de5499" fill-opacity="1"><g transform="translate(640.387941, 488.185929)"><g><path d="M 22.832031 -251.605469 L 78.410156 -251.605469 L 78.410156 -304.597656 L 22.832031 -304.597656 Z M 22.832031 0 L 78.410156 0 L 78.410156 -224.03125 L 22.832031 -224.03125 Z M 22.832031 0 "/></g></g></g><g fill="#de5499" fill-opacity="1"><g transform="translate(719.660185, 488.185929)"><g><path d="M 22.832031 0 L 78.410156 0 L 78.410156 -128.816406 C 83.148438 -155.53125 101.246094 -179.65625 133.988281 -179.65625 C 161.992188 -179.65625 182.671875 -158.546875 182.671875 -124.511719 L 182.671875 0 L 238.25 0 L 238.25 -128.816406 C 244.28125 -153.804688 262.375 -179.65625 294.257812 -179.65625 C 324.847656 -179.65625 342.507812 -158.546875 342.507812 -124.511719 L 342.507812 0 L 397.65625 0 L 397.65625 -125.371094 C 397.65625 -199.472656 355.433594 -228.339844 310.199219 -228.339844 C 260.652344 -228.339844 234.371094 -193.011719 227.910156 -176.210938 C 211.105469 -211.539062 178.363281 -228.339844 147.34375 -228.339844 C 101.675781 -228.339844 79.703125 -192.148438 78.410156 -178.363281 L 78.410156 -224.03125 L 22.832031 -224.03125 Z M 22.832031 0 "/></g></g></g><g fill="#de5499" fill-opacity="1"><g transform="translate(1116.884338, 488.185929)"><g><path d="M 150.359375 -228.339844 C 112.015625 -228.339844 88.320312 -206.367188 80.996094 -192.148438 L 78.410156 -192.148438 L 78.410156 -224.03125 L 22.832031 -224.03125 L 22.832031 81.859375 L 78.410156 81.859375 L 78.410156 -31.882812 L 80.996094 -31.882812 C 88.320312 -17.664062 112.015625 4.308594 150.359375 4.308594 C 200.335938 4.308594 260.652344 -33.175781 260.652344 -112.015625 C 260.652344 -190.859375 200.335938 -228.339844 150.359375 -228.339844 Z M 142.175781 -44.804688 C 110.292969 -44.804688 77.117188 -67.210938 77.117188 -112.015625 C 77.117188 -156.820312 110.292969 -179.226562 142.175781 -179.226562 C 174.484375 -179.226562 207.230469 -156.820312 207.230469 -112.015625 C 207.230469 -67.210938 174.484375 -44.804688 142.175781 -44.804688 Z M 142.175781 -44.804688 "/></g></g></g><g fill="#de5499" fill-opacity="1"><g transform="translate(1368.057365, 488.185929)"><g><path d="M 22.832031 0 L 78.410156 0 L 78.410156 -304.597656 L 22.832031 -304.597656 Z M 22.832031 0 "/></g></g></g><g fill="#de5499" fill-opacity="1"><g transform="translate(1447.329608, 488.185929)"><g><path d="M 126.664062 -228.339844 C 76.257812 -228.339844 12.0625 -189.566406 12.0625 -111.585938 C 12.0625 -34.035156 74.535156 4.308594 130.542969 4.308594 C 173.625 4.308594 201.199219 -9.046875 221.015625 -30.15625 L 190.425781 -59.886719 C 174.054688 -49.546875 161.128906 -42.652344 132.265625 -42.652344 C 100.382812 -42.652344 74.535156 -59.023438 67.210938 -91.765625 L 234.800781 -91.765625 C 247.296875 -189.566406 177.5 -228.339844 126.664062 -228.339844 Z M 126.664062 -180.949219 C 151.652344 -180.949219 180.085938 -165.007812 185.257812 -132.265625 L 67.640625 -132.265625 C 75.394531 -164.578125 101.675781 -180.949219 126.664062 -180.949219 Z M 126.664062 -180.949219 "/></g></g></g><g fill="#264143" fill-opacity="1"><g transform="translate(1673.954169, 488.185929)"><g><path d="M 180.949219 -166.300781 C 202.921875 -175.777344 221.878906 -195.164062 221.878906 -226.617188 C 221.878906 -266.683594 190.859375 -301.582031 129.679688 -301.582031 L 25.851562 -301.582031 L 25.851562 0 L 133.988281 0 C 208.523438 0 243.851562 -34.898438 243.851562 -84.441406 C 243.851562 -128.386719 214.121094 -157.683594 180.949219 -166.300781 Z M 124.511719 -252.035156 C 151.222656 -252.035156 165.871094 -239.542969 165.871094 -218.429688 C 165.871094 -196.890625 151.652344 -181.808594 124.511719 -181.808594 L 82.289062 -181.808594 L 82.289062 -252.035156 Z M 131.402344 -49.546875 L 82.289062 -49.546875 L 82.289062 -138.296875 L 130.109375 -138.296875 C 171.46875 -138.296875 187.410156 -118.910156 187.410156 -93.921875 C 187.410156 -66.777344 170.609375 -49.546875 131.402344 -49.546875 Z M 131.402344 -49.546875 "/></g></g></g><g fill="#264143" fill-opacity="1"><g transform="translate(1910.90981, 488.185929)"><g><path d="M 233.511719 -224.03125 L 177.933594 -224.03125 L 177.933594 -91.765625 C 177.070312 -75.824219 158.113281 -44.375 124.078125 -44.375 C 98.660156 -44.375 75.824219 -59.453125 75.824219 -98.660156 L 75.824219 -224.03125 L 20.679688 -224.03125 L 20.679688 -94.78125 C 20.679688 -24.558594 62.902344 4.308594 103.828125 4.308594 C 149.929688 4.308594 173.625 -31.019531 177.933594 -43.945312 L 177.933594 0 L 233.511719 0 Z M 233.511719 -224.03125 "/></g></g></g><g fill="#264143" fill-opacity="1"><g transform="translate(2145.280509, 488.185929)"><g><path d="M 199.472656 -224.03125 L 133.558594 -66.777344 L 67.640625 -224.03125 L 10.769531 -224.03125 L 105.554688 -5.601562 L 65.484375 81.859375 L 120.632812 81.859375 L 158.546875 0 L 256.34375 -224.03125 Z M 199.472656 -224.03125 "/></g></g></g></svg>