<svg xmlns="http://www.w3.org/2000/svg" xmlns:xlink="http://www.w3.org/1999/xlink" width="100" zoomAndPan="magnify" viewBox="0 0 75 74.999997" height="100" preserveAspectRatio="xMidYMid meet" version="1.0"><path fill="#de5499" d="M 37.46875 -0.0195312 C 16.796875 -0.0195312 -0.0234375 16.800781 -0.0234375 37.472656 C -0.0234375 58.144531 16.796875 74.960938 37.46875 74.960938 C 58.140625 74.960938 74.957031 58.144531 74.957031 37.472656 C 74.957031 16.800781 58.140625 -0.0195312 37.46875 -0.0195312 Z M 37.46875 71.265625 C 18.835938 71.265625 3.675781 56.105469 3.675781 37.472656 C 3.675781 18.839844 18.835938 3.679688 37.46875 3.679688 C 56.101562 3.679688 71.261719 18.839844 71.261719 37.472656 C 71.261719 56.105469 56.101562 71.265625 37.46875 71.265625 Z M 37.46875 71.265625 " fill-opacity="1" fill-rule="nonzero"/><path fill="#de5499" d="M 40.96875 40.386719 L 40.683594 38.878906 C 43.691406 37.308594 45.804688 33.609375 45.804688 29.289062 C 45.804688 23.550781 42.074219 18.898438 37.46875 18.898438 C 32.863281 18.898438 29.132812 23.550781 29.132812 29.289062 C 29.132812 33.644531 31.28125 37.371094 34.332031 38.917969 L 34.082031 40.242188 C 31.914062 43.15625 22.136719 43.152344 22.136719 54.285156 L 52.800781 54.285156 C 52.800781 43.339844 43.347656 43.160156 40.96875 40.386719 Z M 40.96875 40.386719 " fill-opacity="1" fill-rule="nonzero"/></svg>