<svg xmlns="http://www.w3.org/2000/svg" xmlns:xlink="http://www.w3.org/1999/xlink" width="100" zoomAndPan="magnify" viewBox="0 0 75 74.999997" height="100" preserveAspectRatio="xMidYMid meet" version="1.0"><defs><clipPath id="b3efe26754"><path d="M 0.949219 0.640625 L 73.699219 0.640625 L 73.699219 74.140625 L 0.949219 74.140625 Z M 0.949219 0.640625 " clip-rule="nonzero"/></clipPath></defs><g clip-path="url(#b3efe26754)"><path fill="#de5499" d="M 73.699219 37.082031 C 73.699219 16.988281 57.382812 0.644531 37.324219 0.644531 C 17.269531 0.644531 0.949219 16.988281 0.949219 37.082031 C 0.949219 57.175781 17.269531 73.523438 37.324219 73.523438 C 41.238281 73.523438 45.074219 72.898438 48.753906 71.675781 C 51.253906 73.238281 54.203125 74.140625 57.363281 74.140625 C 66.371094 74.140625 73.699219 66.800781 73.699219 57.773438 C 73.699219 54.789062 72.890625 51.988281 71.492188 49.574219 C 72.949219 45.574219 73.699219 41.378906 73.699219 37.082031 Z M 37.324219 4.347656 C 55.34375 4.347656 70 19.035156 70 37.082031 C 70 40.148438 69.578125 43.152344 68.753906 46.058594 C 65.808594 43.183594 61.789062 41.40625 57.363281 41.40625 C 55.597656 41.40625 53.902344 41.691406 52.308594 42.210938 C 47.734375 39.257812 42.453125 37.699219 36.976562 37.699219 C 25.136719 37.699219 14.726562 44.980469 10.53125 55.789062 C 6.828125 50.480469 4.648438 44.035156 4.648438 37.082031 C 4.648438 19.035156 19.304688 4.347656 37.324219 4.347656 Z M 57.363281 70.4375 C 50.390625 70.4375 44.722656 64.757812 44.722656 57.773438 C 44.722656 50.792969 50.390625 45.113281 57.363281 45.113281 C 64.332031 45.113281 70 50.792969 70 57.773438 C 70 64.757812 64.332031 70.4375 57.363281 70.4375 Z M 57.363281 70.4375 " fill-opacity="1" fill-rule="nonzero"/></g><path fill="#de5499" d="M 61.046875 54.71875 L 56.71875 59.050781 L 54.132812 56.460938 C 53.414062 55.738281 52.242188 55.738281 51.519531 56.460938 C 50.796875 57.183594 50.796875 58.355469 51.519531 59.082031 L 55.414062 62.980469 C 55.757812 63.328125 56.230469 63.523438 56.71875 63.523438 C 57.210938 63.523438 57.679688 63.328125 58.027344 62.980469 L 63.660156 57.335938 C 64.382812 56.613281 64.382812 55.441406 63.660156 54.71875 C 62.9375 53.992188 61.765625 53.992188 61.046875 54.71875 Z M 61.046875 54.71875 " fill-opacity="1" fill-rule="nonzero"/><path fill="#de5499" d="M 36.976562 33.378906 C 43.59375 33.378906 48.976562 27.984375 48.976562 21.355469 C 48.976562 14.726562 43.59375 9.335938 36.976562 9.335938 C 30.359375 9.335938 24.976562 14.726562 24.976562 21.355469 C 24.976562 27.984375 30.359375 33.378906 36.976562 33.378906 Z M 36.976562 33.378906 " fill-opacity="1" fill-rule="nonzero"/></svg>