<svg xmlns="http://www.w3.org/2000/svg" xmlns:xlink="http://www.w3.org/1999/xlink" width="100" zoomAndPan="magnify" viewBox="0 0 75 74.999997" height="100" preserveAspectRatio="xMidYMid meet" version="1.0"><path fill="#de5499" d="M 37.46875 -0.0195312 C 16.796875 -0.0195312 -0.0195312 16.796875 -0.0195312 37.46875 C -0.0195312 58.140625 16.796875 74.960938 37.46875 74.960938 C 58.140625 74.960938 74.960938 58.140625 74.960938 37.46875 C 74.960938 16.796875 58.140625 -0.0195312 37.46875 -0.0195312 Z M 37.46875 71.261719 C 18.835938 71.261719 3.675781 56.101562 3.675781 37.46875 C 3.675781 18.835938 18.835938 3.675781 37.46875 3.675781 C 56.101562 3.675781 71.261719 18.835938 71.261719 37.46875 C 71.261719 56.101562 56.101562 71.261719 37.46875 71.261719 Z M 37.46875 71.261719 " fill-opacity="1" fill-rule="nonzero"/><path fill="#de5499" d="M 40.96875 40.386719 L 40.550781 38.164062 C 41.160156 37.835938 41.726562 37.40625 42.246094 36.902344 C 46.285156 36.355469 50.898438 35.492188 50.898438 35.492188 C 41.097656 30.875 51.84375 16.671875 37.511719 16.105469 L 37.511719 16.097656 C 37.496094 16.097656 37.484375 16.101562 37.46875 16.101562 C 37.453125 16.101562 37.4375 16.097656 37.425781 16.097656 L 37.425781 16.105469 C 23.089844 16.671875 33.839844 30.875 24.035156 35.492188 C 24.035156 35.492188 28.652344 36.355469 32.691406 36.902344 C 33.230469 37.429688 33.824219 37.875 34.464844 38.210938 L 34.082031 40.242188 C 31.914062 43.152344 22.136719 43.152344 22.136719 54.285156 L 52.800781 54.285156 C 52.800781 43.339844 43.347656 43.15625 40.96875 40.386719 Z M 40.96875 40.386719 " fill-opacity="1" fill-rule="nonzero"/></svg>